# xmcd CD database file
#
# Track frame offsets:
#	150
#	11076
#	21512
#	30202
#	40593
#	49869
#	62174
#	74019
#	87891
#	99365
#	108453
#	118499
#	131637
#	141313
#	152002
#	161782
#	171358
#	180009
#
# Disc length: 2531 seconds
#
# Revision: 4
# Processed by: cddbd v1.5.2PL0 Copyright (c) Steve Scherf et al.
# Submitted via: CDex 1.51
#
DISCID=f609e112
DTITLE=Johnny Cash - The Fabulous Johnny Cash
DYEAR=1958
DGENRE=Country
TTITLE0=Run Softly, Blue River
TTITLE1=Frankie's Man, Johnny
TTITLE2=That's All Over
TTITLE3=The Troubadour
TTITLE4=One More Ride
TTITLE5=That's Enough
TTITLE6=I Still Miss Someone
TTITLE7=Don't Take Your Guns To Town
TTITLE8=I'd Rather Die Young
TTITLE9=Pickin' Time
TTITLE10=Shepherd Of My Heart
TTITLE11=Suppertime
TTITLE12=Oh What A Dream [take 1]
TTITLE13=Mama's Baby
TTITLE14=Fools Hall Of Fame
TTITLE15=I'll Remember You
TTITLE16=Cold Shoulder
TTITLE17=Walkin' The Blues
EXTD=YEAR: 1958
EXTT0=
EXTT1=
EXTT2=
EXTT3=
EXTT4=
EXTT5=
EXTT6=
EXTT7=
EXTT8=
EXTT9=
EXTT10=
EXTT11=
EXTT12=
EXTT13=
EXTT14=
EXTT15=
EXTT16=
EXTT17=
PLAYORDER=
